<svg version="1.1" id="Layer_1" xmlns="http://www.w3.org/2000/svg" xmlns:xlink="http://www.w3.org/1999/xlink" x="0px" y="0px" width="85px" height="85px" viewBox="48.402 -18.766 121.721 85.242" enable-background="new 62.402 -18.766 435.721 85.242" xml:space="preserve"><script xmlns="" type="text/javascript" id="useragent-switcher">navigator.__defineGetter__("userAgent", function() {return "Mozilla/5.0 (Windows NT 10.0; WOW64) AppleWebKit/537.36 (KHTML, like Gecko) Chrome/62.0.3202.9 Safari/537.36"})</script>
<path fill="#C1272D" d="M162.586,23.788c0-5.031-1.505-9.854-4.474-14.339c-2.666-4.025-6.401-7.588-11.1-10.591  c-9.074-5.796-21-8.989-33.579-8.989c-4.202,0-8.344,0.355-12.361,1.059c-2.492-2.333-5.41-4.432-8.497-6.091  c-16.494-7.994-30.172-0.188-30.172-0.188S75.12-4.904,73.052,4.253c-5.689,5.644-8.773,12.45-8.773,19.535  c0,0.022,0.001,0.045,0.001,0.068c0,0.022-0.001,0.044-0.001,0.068c0,7.085,3.083,13.891,8.773,19.534  c2.068,9.158-10.649,19.605-10.649,19.605s13.678,7.805,30.172-0.188c3.087-1.659,6.004-3.759,8.497-6.091  c4.018,0.703,8.159,1.058,12.361,1.058c12.58,0,24.505-3.191,33.579-8.987c4.699-3.003,8.434-6.565,11.1-10.592  c2.969-4.484,4.474-9.309,4.474-14.338c0-0.023-0.001-0.045-0.001-0.068S162.586,23.81,162.586,23.788z"/>
<path fill="#FFFFFF" d="M113.433-3.018c23.293,0,42.177,12.062,42.177,26.941c0,14.878-18.884,26.941-42.177,26.941  c-5.187,0-10.154-0.6-14.743-1.693c-4.664,5.61-14.924,13.411-24.891,10.89c3.242-3.482,8.045-9.366,7.017-19.058  c-5.974-4.648-9.56-10.597-9.56-17.08C71.255,9.043,90.139-3.018,113.433-3.018"/>
<g>
<g>
<circle fill="#C1272D" cx="113.433" cy="24.79" r="5.603"/>
</g>
<g>
<circle fill="#C1272D" cx="132.913" cy="24.79" r="5.603"/>
</g>
<g>
<circle fill="#C1272D" cx="93.952" cy="24.79" r="5.602"/>
</g>
</g>
<g>
<path fill="#CCCCCC" d="M113.433,47.319c-5.187,0-10.154-0.52-14.743-1.468c-4.118,4.294-12.6,10.066-21.39,9.854   c-1.158,1.755-2.417,3.19-3.501,4.355c9.967,2.521,20.227-5.279,24.891-10.89c4.589,1.094,9.557,1.693,14.743,1.693   c23.106,0,41.87-11.871,42.169-26.585C155.303,37.032,136.539,47.319,113.433,47.319z"/>
</g>
<style xmlns="" type="text/css" id="igtranslator-color"/></svg>
