<svg
   xmlns:svg="http://www.w3.org/2000/svg"
   xmlns="http://www.w3.org/2000/svg"
   version="1.1"
   x="0px"
   y="0px"
   viewBox="0 -8 133.89203 86.627347"
   enable-background="new 0 0 196.6 72"
   xml:space="preserve"
   width="133.89201"
   height="94.62735"
   ><path
     style="color:#000000;font-style:normal;font-variant:normal;font-weight:normal;font-stretch:normal;font-size:medium;line-height:normal;font-family:sans-serif;text-indent:0;text-align:start;text-decoration:none;text-decoration-line:none;text-decoration-style:solid;text-decoration-color:#000000;letter-spacing:normal;word-spacing:normal;text-transform:none;direction:ltr;block-progression:tb;writing-mode:lr-tb;baseline-shift:baseline;text-anchor:start;white-space:normal;clip-rule:nonzero;display:inline;overflow:visible;visibility:visible;opacity:1;isolation:auto;mix-blend-mode:normal;color-interpolation:sRGB;color-interpolation-filters:linearRGB;solid-color:#000000;solid-opacity:1;fill:#0082c9;fill-opacity:1;fill-rule:nonzero;stroke:none;stroke-width:5.56589985;stroke-linecap:butt;stroke-linejoin:miter;stroke-miterlimit:10;stroke-dasharray:none;stroke-dashoffset:0;stroke-opacity:1;color-rendering:auto;image-rendering:auto;shape-rendering:auto;text-rendering:auto;enable-background:accumulate"
     d="m 67.032801,9.9999701 c -11.80525,0 -21.81118,8.0031799 -24.91235,18.8465899 -2.69524,-5.75151 -8.53592,-9.78093 -15.26337,-9.78093 -9.25183,0 -16.85708,7.60525 -16.85708,16.85708 0,9.25182 7.60525,16.86054 16.85708,16.86054 6.72745,0 12.56813,-4.03188 15.26337,-9.78439 3.10117,10.84422 13.1071,18.85006 24.91235,18.85006 11.71795,0 21.67286,-7.8851 24.85334,-18.60701 2.74505,5.62192 8.513439,9.54134 15.145329,9.54134 9.25183,0 16.86055,-7.60872 16.86055,-16.86054 0,-9.25183 -7.60872,-16.85708 -16.86055,-16.85708 -6.63189,0 -12.400279,3.91696 -15.145329,9.53788 C 88.705661,17.88243 78.750751,9.9999701 67.032801,9.9999701 Z m 0,9.8954999 c 8.91163,0 16.03073,7.11564 16.03073,16.02724 0,8.9116 -7.1191,16.03071 -16.03073,16.03071 -8.91158,0 -16.02722,-7.11911 -16.02722,-16.03071 0,-8.9116 7.11564,-16.02724 16.02722,-16.02724 z m -40.17572,9.06567 c 3.90437,0 6.96504,3.05718 6.96504,6.96157 0,3.90438 -3.06067,6.96504 -6.96504,6.96504 -3.90439,0 -6.96158,-3.06066 -6.96158,-6.96504 0,-3.90439 3.05719,-6.96157 6.96158,-6.96157 z m 80.174389,0 c 3.9044,0 6.96504,3.05718 6.96504,6.96157 0,3.90438 -3.06066,6.96504 -6.96504,6.96504 -3.90437,0 -6.96156,-3.06066 -6.96156,-6.96504 0,-3.90439 3.05721,-6.96157 6.96156,-6.96157 z"
/></svg>
